<?xml version="1.0" standalone="no"?>
<!DOCTYPE svg PUBLIC "-//W3C//DTD SVG 20010904//EN"
 "http://www.w3.org/TR/2001/REC-SVG-20010904/DTD/svg10.dtd">
<svg version="1.0" xmlns="http://www.w3.org/2000/svg"
 width="256.000000pt" height="256.000000pt" viewBox="0 0 256.000000 256.000000"
 preserveAspectRatio="xMidYMid meet">

<g transform="translate(0.000000,256.000000) scale(0.100000,-0.100000)"
fill="#ccc" stroke="none">
<path d="M1675 2546 c-156 -72 -107 -310 64 -310 162 0 222 199 89 297 -34 25
-113 32 -153 13z m124 -83 c12 -10 24 -35 28 -55 5 -32 1 -41 -25 -68 -38 -37
-80 -40 -118 -6 -59 50 -21 146 57 146 20 0 46 -8 58 -17z"/>
<path d="M837 2413 c-14 -13 -6 -50 13 -68 l20 -18 -20 -22 c-25 -27 -26 -51
-1 -64 14 -8 25 -6 45 10 l25 20 29 -21 c51 -37 89 2 52 53 l-22 29 23 24 c18
20 21 29 13 42 -16 25 -43 26 -68 3 l-23 -21 -18 20 c-18 19 -55 27 -68 13z"/>
<path d="M1460 2178 c-72 -37 -100 -120 -64 -189 l15 -30 -63 -74 c-35 -40
-65 -74 -68 -74 -3 0 -44 46 -92 102 -151 176 -163 187 -194 187 -16 0 -47
-11 -69 -25 -52 -32 -62 -31 -70 3 -6 30 -53 81 -92 101 -34 17 -110 13 -152
-9 -93 -47 -116 -182 -45 -261 18 -20 22 -17 -196 -134 -80 -43 -153 -85 -162
-93 -11 -9 -18 -29 -18 -48 0 -28 17 -53 110 -158 61 -69 110 -128 110 -133 0
-4 -53 -26 -117 -48 -96 -33 -120 -45 -133 -67 -29 -53 -9 -75 145 -159 l140
-77 5 -82 c4 -63 9 -85 22 -93 29 -19 47 8 50 73 l3 59 185 -100 c102 -55 199
-103 215 -105 20 -3 77 11 165 40 74 26 138 46 142 46 4 0 8 -164 8 -365 0
-201 -3 -365 -6 -365 -11 0 -678 362 -696 378 -14 11 -18 35 -20 116 l-3 101
-30 0 -30 0 -3 -117 c-2 -109 -1 -118 20 -142 29 -32 774 -436 806 -436 28 0
57 15 462 234 179 97 335 188 348 202 22 25 22 30 22 289 l0 264 88 47 c172
93 197 109 207 138 7 20 5 34 -6 54 -12 22 -37 35 -132 67 -64 22 -117 44
-117 48 0 5 50 64 110 133 93 105 110 130 110 158 0 19 -7 39 -17 48 -34 29
-304 169 -320 166 -26 -5 -39 -34 -24 -52 7 -8 73 -48 147 -88 74 -39 134 -75
134 -78 0 -6 -219 -260 -225 -260 -6 0 -709 381 -717 389 -4 3 23 39 59 80 64
73 67 75 108 72 46 -3 89 14 119 48 l19 21 111 -59 c118 -63 146 -66 146 -17
0 19 -20 34 -120 87 -66 35 -120 68 -120 73 0 5 -9 29 -21 52 -15 31 -32 48
-63 63 -54 27 -72 26 -126 -1z m-720 -73 c104 -54 32 -212 -79 -174 -77 27
-82 149 -7 179 32 13 54 12 86 -5z m828 -1 c18 -12 22 -24 20 -51 -6 -73 -91
-95 -123 -32 -35 67 40 127 103 83z m-459 -214 c60 -69 106 -128 103 -131 -8
-8 -711 -389 -717 -389 -6 0 -225 254 -225 260 0 3 89 54 199 113 135 73 209
107 231 107 45 0 96 26 129 68 31 36 137 103 158 99 7 -1 62 -58 122 -127z
m529 -375 c194 -104 352 -192 352 -195 0 -3 -73 -44 -163 -92 l-162 -87 -7 72
c-14 154 -82 258 -210 323 -27 14 -62 24 -76 22 -22 -2 -27 -8 -27 -32 0 -26
5 -31 42 -43 59 -20 137 -93 169 -159 21 -44 27 -69 27 -122 -1 -105 -3 -108
-162 -194 l-142 -76 -141 77 c-100 55 -144 85 -151 102 -18 46 -11 150 13 207
27 62 112 145 167 162 48 15 66 36 52 61 -13 26 -50 24 -108 -5 -127 -65 -195
-170 -209 -323 l-7 -72 -162 87 c-90 48 -163 89 -163 92 0 6 703 388 711 386
3 0 164 -86 357 -191z m-840 -406 c175 -95 332 -181 351 -192 l34 -21 -113
-38 c-63 -21 -122 -38 -132 -38 -16 0 -672 351 -691 369 -6 6 179 78 231 90 2
1 146 -76 320 -170z m1410 126 c92 -30 111 -40 100 -49 -25 -24 -668 -366
-686 -366 -10 0 -69 17 -132 38 -99 33 -112 40 -95 50 254 142 683 370 690
368 6 -2 61 -20 123 -41z m-185 -756 c-17 -15 -646 -360 -685 -374 -17 -7 -18
14 -18 359 0 201 4 366 8 366 4 0 68 -20 142 -46 87 -29 146 -43 165 -41 17 3
113 50 215 106 l185 100 3 -226 c2 -206 1 -229 -15 -244z"/>
<path d="M1092 1258 c-30 -30 11 -85 44 -57 25 21 11 69 -21 69 -6 0 -16 -5
-23 -12z"/>
<path d="M1422 1258 c-30 -30 0 -78 37 -58 32 17 21 70 -14 70 -6 0 -16 -5
-23 -12z"/>
<path d="M1212 1140 c-38 -17 -43 -23 -40 -47 2 -21 9 -29 27 -31 13 -2 28 1
34 7 14 14 53 14 95 -1 30 -11 35 -11 48 6 42 57 -79 106 -164 66z"/>
<path d="M1515 412 c-39 -21 -51 -33 -53 -55 -5 -39 20 -44 80 -16 60 28 81
54 67 81 -13 25 -35 22 -94 -10z"/>
<path d="M1952 2168 c-18 -18 -15 -43 8 -63 l20 -18 -21 -23 c-12 -13 -19 -32
-17 -46 4 -31 43 -36 72 -9 l23 21 18 -20 c22 -24 53 -23 69 2 8 13 5 22 -13
42 l-23 24 22 29 c37 51 -2 90 -53 53 l-29 -22 -22 21 c-26 24 -37 26 -54 9z"/>
</g>
</svg>
